<?xml version="1.0" encoding="UTF-8" standalone="no"?>
<!DOCTYPE svg PUBLIC "-//W3C//DTD SVG 1.1//EN"
 "http://www.w3.org/Graphics/SVG/1.1/DTD/svg11.dtd">
<!-- Generated by graphviz version 4.0.0 (20220529.0937)
 -->
<!-- Title: dependency&#45;cruiser output Pages: 1 -->
<svg width="558pt" height="354pt"
 viewBox="0.00 0.00 558.00 354.00" xmlns="http://www.w3.org/2000/svg" xmlns:xlink="http://www.w3.org/1999/xlink">
<g id="graph0" class="graph" transform="scale(1 1) rotate(0) translate(4 350)">
<title>dependency&#45;cruiser output</title>
<polygon fill="white" stroke="transparent" points="-4,4 -4,-350 554,-350 554,4 -4,4"/>
<g id="clust1" class="cluster">
<title>cluster_src</title>
<path fill="#ffffff" stroke="black" stroke-width="2" d="M20,-8C20,-8 530,-8 530,-8 536,-8 542,-14 542,-20 542,-20 542,-326 542,-326 542,-332 536,-338 530,-338 530,-338 20,-338 20,-338 14,-338 8,-332 8,-326 8,-326 8,-20 8,-20 8,-14 14,-8 20,-8"/>
<text text-anchor="middle" x="275" y="-326.8" font-family="Helvetica,sans-Serif" font-weight="bold" font-size="9.00">src</text>
</g>
<g id="clust4" class="cluster">
<title>cluster_src/Specialty</title>
<path fill="#ffffff" stroke="black" stroke-width="2" d="M208,-140C208,-140 522,-140 522,-140 528,-140 534,-146 534,-152 534,-152 534,-244 534,-244 534,-250 528,-256 522,-256 522,-256 208,-256 208,-256 202,-256 196,-250 196,-244 196,-244 196,-152 196,-152 196,-146 202,-140 208,-140"/>
<text text-anchor="middle" x="365" y="-244.8" font-family="Helvetica,sans-Serif" font-weight="bold" font-size="9.00">Specialty</text>
</g>
<g id="clust6" class="cluster">
<title>cluster_src/Specialty/Entity</title>
<path fill="#ffffff" stroke="black" stroke-width="2" d="M436,-148C436,-148 514,-148 514,-148 520,-148 526,-154 526,-160 526,-160 526,-218 526,-218 526,-224 520,-230 514,-230 514,-230 436,-230 436,-230 430,-230 424,-224 424,-218 424,-218 424,-160 424,-160 424,-154 430,-148 436,-148"/>
<text text-anchor="middle" x="475" y="-218.8" font-family="Helvetica,sans-Serif" font-weight="bold" font-size="9.00">Entity</text>
</g>
<g id="clust5" class="cluster">
<title>cluster_src/Specialty/DTO</title>
<path fill="#ffffff" stroke="black" stroke-width="2" d="M217.5,-178C217.5,-178 286.5,-178 286.5,-178 292.5,-178 298.5,-184 298.5,-190 298.5,-190 298.5,-218 298.5,-218 298.5,-224 292.5,-230 286.5,-230 286.5,-230 217.5,-230 217.5,-230 211.5,-230 205.5,-224 205.5,-218 205.5,-218 205.5,-190 205.5,-190 205.5,-184 211.5,-178 217.5,-178"/>
<text text-anchor="middle" x="252" y="-218.8" font-family="Helvetica,sans-Serif" font-weight="bold" font-size="9.00">DTO</text>
</g>
<g id="clust2" class="cluster">
<title>cluster_src/Doctor</title>
<path fill="#ffffff" stroke="black" stroke-width="2" d="M213,-16C213,-16 516.5,-16 516.5,-16 522.5,-16 528.5,-22 528.5,-28 528.5,-28 528.5,-120 528.5,-120 528.5,-126 522.5,-132 516.5,-132 516.5,-132 213,-132 213,-132 207,-132 201,-126 201,-120 201,-120 201,-28 201,-28 201,-22 207,-16 213,-16"/>
<text text-anchor="middle" x="364.75" y="-120.8" font-family="Helvetica,sans-Serif" font-weight="bold" font-size="9.00">Doctor</text>
</g>
<g id="clust3" class="cluster">
<title>cluster_src/Doctor/Entity</title>
<path fill="#ffffff" stroke="black" stroke-width="2" d="M441.5,-24C441.5,-24 508.5,-24 508.5,-24 514.5,-24 520.5,-30 520.5,-36 520.5,-36 520.5,-94 520.5,-94 520.5,-100 514.5,-106 508.5,-106 508.5,-106 441.5,-106 441.5,-106 435.5,-106 429.5,-100 429.5,-94 429.5,-94 429.5,-36 429.5,-36 429.5,-30 435.5,-24 441.5,-24"/>
<text text-anchor="middle" x="475" y="-94.8" font-family="Helvetica,sans-Serif" font-weight="bold" font-size="9.00">Entity</text>
</g>
<!-- src/Doctor/Entity/doctor.entity -->
<g id="node1" class="node">
<title>src/Doctor/Entity/doctor.entity</title>
<g id="a_node1"><a xlink:title="doctor.entity">
<path fill="#ffffcc" stroke="red" d="M501.5,-80C501.5,-80 448.5,-80 448.5,-80 445.5,-80 442.5,-77 442.5,-74 442.5,-74 442.5,-68 442.5,-68 442.5,-65 445.5,-62 448.5,-62 448.5,-62 501.5,-62 501.5,-62 504.5,-62 507.5,-65 507.5,-68 507.5,-68 507.5,-74 507.5,-74 507.5,-77 504.5,-80 501.5,-80"/>
<text text-anchor="start" x="450.5" y="-68.8" font-family="Helvetica,sans-Serif" font-size="9.00" fill="red">doctor.entity</text>
</a>
</g>
</g>
<!-- src/Doctor/Entity/doctor.entity.ts -->
<g id="node2" class="node">
<title>src/Doctor/Entity/doctor.entity.ts</title>
<g id="a_node2"><a xlink:href="src/Doctor/Entity/doctor.entity.ts" xlink:title="doctor.entity.ts">
<path fill="#ddfeff" stroke="black" d="M506.5,-50C506.5,-50 443.5,-50 443.5,-50 440.5,-50 437.5,-47 437.5,-44 437.5,-44 437.5,-38 437.5,-38 437.5,-35 440.5,-32 443.5,-32 443.5,-32 506.5,-32 506.5,-32 509.5,-32 512.5,-35 512.5,-38 512.5,-38 512.5,-44 512.5,-44 512.5,-47 509.5,-50 506.5,-50"/>
<text text-anchor="start" x="445.5" y="-38.8" font-family="Helvetica,sans-Serif" font-size="9.00">doctor.entity.ts</text>
</a>
</g>
</g>
<!-- src/Specialty/Entity/specialty.entity -->
<g id="node3" class="node">
<title>src/Specialty/Entity/specialty.entity</title>
<g id="a_node3"><a xlink:title="specialty.entity">
<path fill="#ffffcc" stroke="red" d="M507,-174C507,-174 443,-174 443,-174 440,-174 437,-171 437,-168 437,-168 437,-162 437,-162 437,-159 440,-156 443,-156 443,-156 507,-156 507,-156 510,-156 513,-159 513,-162 513,-162 513,-168 513,-168 513,-171 510,-174 507,-174"/>
<text text-anchor="start" x="445" y="-162.8" font-family="Helvetica,sans-Serif" font-size="9.00" fill="red">specialty.entity</text>
</a>
</g>
</g>
<!-- src/Doctor/Entity/doctor.entity.ts&#45;&gt;src/Specialty/Entity/specialty.entity -->
<g id="edge1" class="edge">
<title>src/Doctor/Entity/doctor.entity.ts&#45;&gt;src/Specialty/Entity/specialty.entity</title>
<path fill="none" stroke="#000000" stroke-width="2" stroke-opacity="0.200000" d="M437.25,-45.57C429.26,-48.7 422.49,-53.78 420,-62 414.72,-79.44 414.72,-85.56 420,-103 426.16,-123.36 443.55,-140.88 457.14,-152.05"/>
<polygon fill="#000000" fill-opacity="0.200000" stroke="#000000" stroke-width="2" stroke-opacity="0.200000" points="455.95,-153.79 461.95,-155.88 458.56,-150.5 455.95,-153.79"/>
</g>
<!-- src/Doctor/doctor.controller.ts -->
<g id="node4" class="node">
<title>src/Doctor/doctor.controller.ts</title>
<g id="a_node4"><a xlink:href="src/Doctor/doctor.controller.ts" xlink:title="doctor.controller.ts">
<path fill="#ddfeff" stroke="black" d="M404.5,-42C404.5,-42 324.5,-42 324.5,-42 321.5,-42 318.5,-39 318.5,-36 318.5,-36 318.5,-30 318.5,-30 318.5,-27 321.5,-24 324.5,-24 324.5,-24 404.5,-24 404.5,-24 407.5,-24 410.5,-27 410.5,-30 410.5,-30 410.5,-36 410.5,-36 410.5,-39 407.5,-42 404.5,-42"/>
<text text-anchor="start" x="326.5" y="-30.8" font-family="Helvetica,sans-Serif" font-size="9.00">doctor.controller.ts</text>
</a>
</g>
</g>
<!-- src/Doctor/doctor.module.ts -->
<g id="node5" class="node">
<title>src/Doctor/doctor.module.ts</title>
<g id="a_node5"><a xlink:href="src/Doctor/doctor.module.ts" xlink:title="doctor.module.ts">
<path fill="#ddfeff" stroke="black" d="M289,-75C289,-75 215,-75 215,-75 212,-75 209,-72 209,-69 209,-69 209,-63 209,-63 209,-60 212,-57 215,-57 215,-57 289,-57 289,-57 292,-57 295,-60 295,-63 295,-63 295,-69 295,-69 295,-72 292,-75 289,-75"/>
<text text-anchor="start" x="217" y="-63.8" font-family="Helvetica,sans-Serif" font-size="9.00">doctor.module.ts</text>
</a>
</g>
</g>
<!-- src/Doctor/doctor.module.ts&#45;&gt;src/Doctor/Entity/doctor.entity.ts -->
<g id="edge4" class="edge">
<title>src/Doctor/doctor.module.ts&#45;&gt;src/Doctor/Entity/doctor.entity.ts</title>
<path fill="none" stroke="#000000" stroke-width="2" stroke-opacity="0.200000" d="M295.23,-61.46C328.14,-57.88 374.99,-52.74 416,-48 421,-47.42 426.23,-46.81 431.43,-46.19"/>
<polygon fill="#000000" fill-opacity="0.200000" stroke="#000000" stroke-width="2" stroke-opacity="0.200000" points="431.79,-48.26 437.5,-45.46 431.29,-44.09 431.79,-48.26"/>
</g>
<!-- src/Doctor/doctor.module.ts&#45;&gt;src/Doctor/doctor.controller.ts -->
<g id="edge2" class="edge">
<title>src/Doctor/doctor.module.ts&#45;&gt;src/Doctor/doctor.controller.ts</title>
<path fill="none" stroke="#000000" stroke-width="2" stroke-opacity="0.200000" d="M283.19,-56.98C296.84,-52.91 313.07,-48.06 327.35,-43.8"/>
<polygon fill="#000000" fill-opacity="0.200000" stroke="#000000" stroke-width="2" stroke-opacity="0.200000" points="328.19,-45.74 333.34,-42.01 326.99,-41.71 328.19,-45.74"/>
</g>
<!-- src/Doctor/doctor.service.ts -->
<g id="node6" class="node">
<title>src/Doctor/doctor.service.ts</title>
<g id="a_node6"><a xlink:href="src/Doctor/doctor.service.ts" xlink:title="doctor.service.ts">
<path fill="#ddfeff" stroke="black" d="M400,-86C400,-86 329,-86 329,-86 326,-86 323,-83 323,-80 323,-80 323,-74 323,-74 323,-71 326,-68 329,-68 329,-68 400,-68 400,-68 403,-68 406,-71 406,-74 406,-74 406,-80 406,-80 406,-83 403,-86 400,-86"/>
<text text-anchor="start" x="331" y="-74.8" font-family="Helvetica,sans-Serif" font-size="9.00">doctor.service.ts</text>
</a>
</g>
</g>
<!-- src/Doctor/doctor.module.ts&#45;&gt;src/Doctor/doctor.service.ts -->
<g id="edge3" class="edge">
<title>src/Doctor/doctor.module.ts&#45;&gt;src/Doctor/doctor.service.ts</title>
<path fill="none" stroke="#000000" stroke-width="2" stroke-opacity="0.200000" d="M295.09,-70.19C302.24,-70.9 309.7,-71.64 316.95,-72.37"/>
<polygon fill="#000000" fill-opacity="0.200000" stroke="#000000" stroke-width="2" stroke-opacity="0.200000" points="316.81,-74.46 322.99,-72.97 317.22,-70.28 316.81,-74.46"/>
</g>
<!-- src/Doctor/doctor.service.ts&#45;&gt;src/Doctor/Entity/doctor.entity.ts -->
<g id="edge5" class="edge">
<title>src/Doctor/doctor.service.ts&#45;&gt;src/Doctor/Entity/doctor.entity.ts</title>
<path fill="none" stroke="#000000" stroke-width="2" stroke-opacity="0.200000" d="M391.22,-67.92C399.17,-65.09 407.96,-61.94 416,-59 419.57,-57.7 420.4,-57.21 424,-56 428.13,-54.61 432.48,-53.21 436.81,-51.85"/>
<polygon fill="#000000" fill-opacity="0.200000" stroke="#000000" stroke-width="2" stroke-opacity="0.200000" points="437.58,-53.82 442.69,-50.04 436.34,-49.8 437.58,-53.82"/>
</g>
<!-- src/Specialty/DTO/specialty.dto.ts -->
<g id="node7" class="node">
<title>src/Specialty/DTO/specialty.dto.ts</title>
<g id="a_node7"><a xlink:href="src/Specialty/DTO/specialty.dto.ts" xlink:title="specialty.dto.ts">
<path fill="#ccffcc" stroke="black" d="M284.5,-204C284.5,-204 219.5,-204 219.5,-204 216.5,-204 213.5,-201 213.5,-198 213.5,-198 213.5,-192 213.5,-192 213.5,-189 216.5,-186 219.5,-186 219.5,-186 284.5,-186 284.5,-186 287.5,-186 290.5,-189 290.5,-192 290.5,-192 290.5,-198 290.5,-198 290.5,-201 287.5,-204 284.5,-204"/>
<text text-anchor="start" x="221.5" y="-192.8" font-family="Helvetica,sans-Serif" font-size="9.00">specialty.dto.ts</text>
</a>
</g>
</g>
<!-- src/Specialty/Entity/specialty.entity.ts -->
<g id="node8" class="node">
<title>src/Specialty/Entity/specialty.entity.ts</title>
<g id="a_node8"><a xlink:href="src/Specialty/Entity/specialty.entity.ts" xlink:title="specialty.entity.ts">
<path fill="#ddfeff" stroke="black" d="M512,-204C512,-204 438,-204 438,-204 435,-204 432,-201 432,-198 432,-198 432,-192 432,-192 432,-189 435,-186 438,-186 438,-186 512,-186 512,-186 515,-186 518,-189 518,-192 518,-192 518,-198 518,-198 518,-201 515,-204 512,-204"/>
<text text-anchor="start" x="440" y="-192.8" font-family="Helvetica,sans-Serif" font-size="9.00">specialty.entity.ts</text>
</a>
</g>
</g>
<!-- src/Specialty/Entity/specialty.entity.ts&#45;&gt;src/Doctor/Entity/doctor.entity -->
<g id="edge6" class="edge">
<title>src/Specialty/Entity/specialty.entity.ts&#45;&gt;src/Doctor/Entity/doctor.entity</title>
<path fill="none" stroke="#000000" stroke-width="2" stroke-opacity="0.200000" d="M431.79,-187.85C426.28,-184.7 421.9,-180.26 420,-174 409.6,-139.66 439.88,-103.57 459.55,-84.56"/>
<polygon fill="#000000" fill-opacity="0.200000" stroke="#000000" stroke-width="2" stroke-opacity="0.200000" points="461.35,-85.75 464.29,-80.11 458.48,-82.68 461.35,-85.75"/>
</g>
<!-- src/Specialty/specialty.controller.ts -->
<g id="node9" class="node">
<title>src/Specialty/specialty.controller.ts</title>
<g id="a_node9"><a xlink:href="src/Specialty/specialty.controller.ts" xlink:title="specialty.controller.ts">
<path fill="#ddfeff" stroke="black" d="M410,-166C410,-166 319,-166 319,-166 316,-166 313,-163 313,-160 313,-160 313,-154 313,-154 313,-151 316,-148 319,-148 319,-148 410,-148 410,-148 413,-148 416,-151 416,-154 416,-154 416,-160 416,-160 416,-163 413,-166 410,-166"/>
<text text-anchor="start" x="321" y="-154.8" font-family="Helvetica,sans-Serif" font-size="9.00">specialty.controller.ts</text>
</a>
</g>
</g>
<!-- src/Specialty/specialty.module.ts -->
<g id="node10" class="node">
<title>src/Specialty/specialty.module.ts</title>
<g id="a_node10"><a xlink:href="src/Specialty/specialty.module.ts" xlink:title="specialty.module.ts">
<path fill="#ddfeff" stroke="black" d="M294,-170C294,-170 210,-170 210,-170 207,-170 204,-167 204,-164 204,-164 204,-158 204,-158 204,-155 207,-152 210,-152 210,-152 294,-152 294,-152 297,-152 300,-155 300,-158 300,-158 300,-164 300,-164 300,-167 297,-170 294,-170"/>
<text text-anchor="start" x="212" y="-158.8" font-family="Helvetica,sans-Serif" font-size="9.00">specialty.module.ts</text>
</a>
</g>
</g>
<!-- src/Specialty/specialty.module.ts&#45;&gt;src/Specialty/Entity/specialty.entity.ts -->
<g id="edge7" class="edge">
<title>src/Specialty/specialty.module.ts&#45;&gt;src/Specialty/Entity/specialty.entity.ts</title>
<path fill="none" stroke="#000000" stroke-width="2" stroke-opacity="0.200000" d="M300.13,-169.85C304.48,-170.61 308.82,-171.33 313,-172 358.62,-179.28 370.28,-179.35 416,-186 419.21,-186.47 422.53,-186.96 425.86,-187.46"/>
<polygon fill="#000000" fill-opacity="0.200000" stroke="#000000" stroke-width="2" stroke-opacity="0.200000" points="425.64,-189.55 431.88,-188.37 426.26,-185.4 425.64,-189.55"/>
</g>
<!-- src/Specialty/specialty.module.ts&#45;&gt;src/Specialty/specialty.controller.ts -->
<g id="edge8" class="edge">
<title>src/Specialty/specialty.module.ts&#45;&gt;src/Specialty/specialty.controller.ts</title>
<path fill="none" stroke="#000000" stroke-width="2" stroke-opacity="0.200000" d="M300.18,-159.29C302.29,-159.22 304.42,-159.14 306.55,-159.06"/>
<polygon fill="#000000" fill-opacity="0.200000" stroke="#000000" stroke-width="2" stroke-opacity="0.200000" points="307.02,-161.15 312.94,-158.83 306.87,-156.95 307.02,-161.15"/>
</g>
<!-- src/Specialty/specialty.service.ts -->
<g id="node11" class="node">
<title>src/Specialty/specialty.service.ts</title>
<g id="a_node11"><a xlink:href="src/Specialty/specialty.service.ts" xlink:title="specialty.service.ts">
<path fill="#ddfeff" stroke="black" d="M405.5,-210C405.5,-210 323.5,-210 323.5,-210 320.5,-210 317.5,-207 317.5,-204 317.5,-204 317.5,-198 317.5,-198 317.5,-195 320.5,-192 323.5,-192 323.5,-192 405.5,-192 405.5,-192 408.5,-192 411.5,-195 411.5,-198 411.5,-198 411.5,-204 411.5,-204 411.5,-207 408.5,-210 405.5,-210"/>
<text text-anchor="start" x="325.5" y="-198.8" font-family="Helvetica,sans-Serif" font-size="9.00">specialty.service.ts</text>
</a>
</g>
</g>
<!-- src/Specialty/specialty.module.ts&#45;&gt;src/Specialty/specialty.service.ts -->
<g id="edge9" class="edge">
<title>src/Specialty/specialty.module.ts&#45;&gt;src/Specialty/specialty.service.ts</title>
<path fill="none" stroke="#000000" stroke-width="2" stroke-opacity="0.200000" d="M287.27,-170.06C291.62,-171.54 295.96,-173.19 300,-175 306.19,-177.77 306.88,-180.07 313,-183 318.05,-185.42 323.52,-187.7 328.94,-189.77"/>
<polygon fill="#000000" fill-opacity="0.200000" stroke="#000000" stroke-width="2" stroke-opacity="0.200000" points="328.41,-191.81 334.76,-191.93 329.87,-187.88 328.41,-191.81"/>
</g>
<!-- src/Specialty/specialty.service.ts&#45;&gt;src/Specialty/Entity/specialty.entity.ts -->
<g id="edge10" class="edge">
<title>src/Specialty/specialty.service.ts&#45;&gt;src/Specialty/Entity/specialty.entity.ts</title>
<path fill="none" stroke="#000000" stroke-width="2" stroke-opacity="0.200000" d="M411.51,-198.46C416.12,-198.2 420.81,-197.94 425.44,-197.69"/>
<polygon fill="#000000" fill-opacity="0.200000" stroke="#000000" stroke-width="2" stroke-opacity="0.200000" points="425.83,-199.77 431.71,-197.34 425.6,-195.57 425.83,-199.77"/>
</g>
<!-- src/app.controller.spec.ts -->
<g id="node12" class="node">
<title>src/app.controller.spec.ts</title>
<g id="a_node12"><a xlink:href="src/app.controller.spec.ts" xlink:title="app.controller.spec.ts">
<path fill="#ddfeff" stroke="black" d="M182,-297C182,-297 89,-297 89,-297 86,-297 83,-294 83,-291 83,-291 83,-285 83,-285 83,-282 86,-279 89,-279 89,-279 182,-279 182,-279 185,-279 188,-282 188,-285 188,-285 188,-291 188,-291 188,-294 185,-297 182,-297"/>
<text text-anchor="start" x="91" y="-285.8" font-family="Helvetica,sans-Serif" font-size="9.00">app.controller.spec.ts</text>
</a>
</g>
</g>
<!-- src/app.controller.ts -->
<g id="node13" class="node">
<title>src/app.controller.ts</title>
<g id="a_node13"><a xlink:href="src/app.controller.ts" xlink:title="app.controller.ts">
<path fill="#ddfeff" stroke="black" d="M287.5,-282C287.5,-282 216.5,-282 216.5,-282 213.5,-282 210.5,-279 210.5,-276 210.5,-276 210.5,-270 210.5,-270 210.5,-267 213.5,-264 216.5,-264 216.5,-264 287.5,-264 287.5,-264 290.5,-264 293.5,-267 293.5,-270 293.5,-270 293.5,-276 293.5,-276 293.5,-279 290.5,-282 287.5,-282"/>
<text text-anchor="start" x="218.5" y="-270.8" font-family="Helvetica,sans-Serif" font-size="9.00">app.controller.ts</text>
</a>
</g>
</g>
<!-- src/app.controller.spec.ts&#45;&gt;src/app.controller.ts -->
<g id="edge11" class="edge">
<title>src/app.controller.spec.ts&#45;&gt;src/app.controller.ts</title>
<path fill="none" stroke="#000000" stroke-width="2" stroke-opacity="0.200000" d="M188.06,-281.25C193.43,-280.54 198.87,-279.83 204.19,-279.13"/>
<polygon fill="#000000" fill-opacity="0.200000" stroke="#000000" stroke-width="2" stroke-opacity="0.200000" points="204.69,-281.18 210.37,-278.32 204.15,-277.02 204.69,-281.18"/>
</g>
<!-- src/app.service.ts -->
<g id="node14" class="node">
<title>src/app.service.ts</title>
<g id="a_node14"><a xlink:href="src/app.service.ts" xlink:title="app.service.ts">
<path fill="#ddfeff" stroke="black" d="M283,-312C283,-312 221,-312 221,-312 218,-312 215,-309 215,-306 215,-306 215,-300 215,-300 215,-297 218,-294 221,-294 221,-294 283,-294 283,-294 286,-294 289,-297 289,-300 289,-300 289,-306 289,-306 289,-309 286,-312 283,-312"/>
<text text-anchor="start" x="223" y="-300.8" font-family="Helvetica,sans-Serif" font-size="9.00">app.service.ts</text>
</a>
</g>
</g>
<!-- src/app.controller.spec.ts&#45;&gt;src/app.service.ts -->
<g id="edge12" class="edge">
<title>src/app.controller.spec.ts&#45;&gt;src/app.service.ts</title>
<path fill="none" stroke="#000000" stroke-width="2" stroke-opacity="0.200000" d="M188.06,-294.75C194.96,-295.66 201.98,-296.58 208.71,-297.46"/>
<polygon fill="#000000" fill-opacity="0.200000" stroke="#000000" stroke-width="2" stroke-opacity="0.200000" points="208.56,-299.56 214.79,-298.26 209.11,-295.39 208.56,-299.56"/>
</g>
<!-- src/app.module.ts -->
<g id="node15" class="node">
<title>src/app.module.ts</title>
<g id="a_node15"><a xlink:href="src/app.module.ts" xlink:title="app.module.ts">
<path fill="#ddfeff" stroke="black" d="M167.5,-218C167.5,-218 103.5,-218 103.5,-218 100.5,-218 97.5,-215 97.5,-212 97.5,-212 97.5,-206 97.5,-206 97.5,-203 100.5,-200 103.5,-200 103.5,-200 167.5,-200 167.5,-200 170.5,-200 173.5,-203 173.5,-206 173.5,-206 173.5,-212 173.5,-212 173.5,-215 170.5,-218 167.5,-218"/>
<text text-anchor="start" x="105.5" y="-206.8" font-family="Helvetica,sans-Serif" font-size="9.00">app.module.ts</text>
</a>
</g>
</g>
<!-- src/app.module.ts&#45;&gt;src/Doctor/doctor.module.ts -->
<g id="edge15" class="edge">
<title>src/app.module.ts&#45;&gt;src/Doctor/doctor.module.ts</title>
<path fill="none" stroke="#000000" stroke-width="2" stroke-opacity="0.200000" d="M144.01,-199.62C163.59,-175.17 216.27,-109.37 239.61,-80.23"/>
<polygon fill="#000000" fill-opacity="0.200000" stroke="#000000" stroke-width="2" stroke-opacity="0.200000" points="241.5,-81.23 243.61,-75.23 238.22,-78.6 241.5,-81.23"/>
</g>
<!-- src/app.module.ts&#45;&gt;src/Specialty/specialty.module.ts -->
<g id="edge16" class="edge">
<title>src/app.module.ts&#45;&gt;src/Specialty/specialty.module.ts</title>
<path fill="none" stroke="#000000" stroke-width="2" stroke-opacity="0.200000" d="M150.15,-199.78C161.87,-192.21 179.45,-181.69 196,-175 198.71,-173.9 201.53,-172.87 204.41,-171.91"/>
<polygon fill="#000000" fill-opacity="0.200000" stroke="#000000" stroke-width="2" stroke-opacity="0.200000" points="205.27,-173.84 210.35,-170.02 203.99,-169.84 205.27,-173.84"/>
</g>
<!-- src/app.module.ts&#45;&gt;src/app.controller.ts -->
<g id="edge13" class="edge">
<title>src/app.module.ts&#45;&gt;src/app.controller.ts</title>
<path fill="none" stroke="#000000" stroke-width="2" stroke-opacity="0.200000" d="M152.91,-218.17C172.97,-229.39 207.01,-248.41 229.24,-260.84"/>
<polygon fill="#000000" fill-opacity="0.200000" stroke="#000000" stroke-width="2" stroke-opacity="0.200000" points="228.36,-262.75 234.63,-263.85 230.41,-259.09 228.36,-262.75"/>
</g>
<!-- src/app.module.ts&#45;&gt;src/app.service.ts -->
<g id="edge14" class="edge">
<title>src/app.module.ts&#45;&gt;src/app.service.ts</title>
<path fill="none" stroke="#000000" stroke-width="2" stroke-opacity="0.200000" d="M144.76,-218.12C155.45,-230.17 174.32,-252.29 188,-273 192.16,-279.3 190.09,-283.29 196,-288 199.95,-291.15 204.51,-293.64 209.28,-295.61"/>
<polygon fill="#000000" fill-opacity="0.200000" stroke="#000000" stroke-width="2" stroke-opacity="0.200000" points="208.59,-297.6 214.95,-297.69 210.04,-293.65 208.59,-297.6"/>
</g>
<!-- src/main.ts -->
<g id="node16" class="node">
<title>src/main.ts</title>
<g id="a_node16"><a xlink:href="src/main.ts" xlink:title="main.ts">
<path fill="#ddfeff" stroke="black" d="M64,-218C64,-218 22,-218 22,-218 19,-218 16,-215 16,-212 16,-212 16,-206 16,-206 16,-203 19,-200 22,-200 22,-200 64,-200 64,-200 67,-200 70,-203 70,-206 70,-206 70,-212 70,-212 70,-215 67,-218 64,-218"/>
<text text-anchor="start" x="27.5" y="-206.8" font-family="Helvetica,sans-Serif" font-size="9.00">main.ts</text>
</a>
</g>
</g>
<!-- src/main.ts&#45;&gt;src/app.module.ts -->
<g id="edge17" class="edge">
<title>src/main.ts&#45;&gt;src/app.module.ts</title>
<path fill="none" stroke="#000000" stroke-width="2" stroke-opacity="0.200000" d="M70.18,-209C76.78,-209 84.05,-209 91.26,-209"/>
<polygon fill="#000000" fill-opacity="0.200000" stroke="#000000" stroke-width="2" stroke-opacity="0.200000" points="91.28,-211.1 97.28,-209 91.28,-206.9 91.28,-211.1"/>
</g>
</g>
</svg>
